<svg width="112" height="16" viewBox="0 0 112 16" fill="none" xmlns="http://www.w3.org/2000/svg">
<path d="M112 14.7664H109.138V13.6483H109.068C108.502 14.5661 107.619 15 106.453 15C103.971 15 102.222 13.0475 102.231 10.4609C102.222 7.87424 103.971 5.92175 106.453 5.92175C107.619 5.92175 108.502 6.35563 109.068 7.27347H109.138V2.68428H112V14.7664ZM107.142 12.5469C108.352 12.5552 109.209 11.6874 109.209 10.4609C109.209 9.23431 108.352 8.36653 107.142 8.37488C105.941 8.36653 105.084 9.23431 105.093 10.4609C105.084 11.6874 105.941 12.5552 107.142 12.5469Z" fill="white" fill-opacity="0.5"/>
<path d="M91.5615 14.7664V6.15537H94.4232V7.44034H94.4762C94.9885 6.49747 96.0131 5.92174 97.3203 5.92174C99.3871 5.92174 100.633 7.37359 100.641 9.7099V14.7664H97.7973V10.1772C97.7796 9.04239 97.179 8.36652 96.1897 8.37487C95.1916 8.36652 94.432 9.0257 94.4232 10.5777V14.7664H91.5615Z" fill="white" fill-opacity="0.5"/>
<path d="M85.414 15C82.4021 15 80.4059 13.0976 80.4148 10.4609C80.4059 7.78245 82.4551 5.92174 85.2727 5.92174C88.0638 5.92174 89.9804 7.78245 89.9893 10.4609C89.9804 10.7362 89.9628 11.0116 89.9186 11.2786H83.2765C83.4532 12.2381 84.3099 12.8639 85.414 12.8639C86.2708 12.8639 86.8625 12.5135 87.1628 11.9294L89.636 12.7638C88.9029 14.1322 87.4367 15 85.414 15ZM83.2942 9.40952H87.1098C86.995 8.64188 86.2973 8.0578 85.2727 8.0578C84.2746 8.0578 83.5238 8.58347 83.2942 9.40952Z" fill="white" fill-opacity="0.5"/>
<path d="M75.9631 14.7664V6.15538H78.8249V14.7664H75.9631ZM77.394 5.07066C76.4489 5.06232 75.7335 4.41149 75.7335 3.53537C75.7335 2.65091 76.4489 1.99173 77.394 2.00008C78.3391 1.99173 79.0545 2.65091 79.0545 3.53537C79.0545 4.41149 78.3391 5.06232 77.394 5.07066Z" fill="white" fill-opacity="0.5"/>
<path d="M68.0315 14.7664V6.15537H70.8932V7.37359H70.9639C71.4497 6.47244 72.3065 5.92174 73.3487 5.92174C73.6313 5.92174 73.8963 5.96346 74.1966 6.05524V8.59181C73.8168 8.49168 73.4194 8.44162 73.0837 8.44162C71.6617 8.44162 70.9021 9.31774 70.8932 10.9448V14.7664H68.0315Z" fill="white" fill-opacity="0.5"/>
<path d="M58.086 14.7664V2.68428H66.3533V5.32098H61.0537V7.69067H65.788V10.1438H61.0537V14.7664H58.086Z" fill="white" fill-opacity="0.5"/>
<path d="M41.4808 5.32098V2.68428H51.8325V5.32098H48.1405V14.7664H45.1728V5.32098H41.4808Z" fill="white"/>
<path d="M31.288 14.7664V2.68428H39.6436V5.32098H34.2558V7.44035H39.149V9.81004H34.2558V12.1297H39.785V14.7664H31.288Z" fill="white"/>
<path d="M20 14.7664V2.68428H24.5399C27.5165 2.68428 29.5657 4.36142 29.5568 6.78952C29.5657 9.21762 27.5165 10.8948 24.5399 10.8948H22.9677V14.7664H20ZM22.9677 8.3415H24.5929C25.8383 8.34984 26.5803 7.75742 26.5891 6.78952C26.5803 5.81327 25.8383 5.22919 24.5929 5.23754H22.9677V8.3415Z" fill="white"/>
<path d="M2.375 8C1.85 8 1.40625 7.81204 1.04375 7.43611C0.68125 7.06018 0.5 6.6 0.5 6.05556C0.5 5.51111 0.68125 5.05093 1.04375 4.675C1.40625 4.29907 1.85 4.11111 2.375 4.11111C2.9 4.11111 3.34375 4.29907 3.70625 4.675C4.06875 5.05093 4.25 5.51111 4.25 6.05556C4.25 6.6 4.06875 7.06018 3.70625 7.43611C3.34375 7.81204 2.9 8 2.375 8ZM5.75 4.88889C5.225 4.88889 4.78125 4.70093 4.41875 4.325C4.05625 3.94907 3.875 3.48889 3.875 2.94444C3.875 2.4 4.05625 1.93981 4.41875 1.56389C4.78125 1.18796 5.225 1 5.75 1C6.275 1 6.71875 1.18796 7.08125 1.56389C7.44375 1.93981 7.625 2.4 7.625 2.94444C7.625 3.48889 7.44375 3.94907 7.08125 4.325C6.71875 4.70093 6.275 4.88889 5.75 4.88889ZM10.25 4.88889C9.725 4.88889 9.28125 4.70093 8.91875 4.325C8.55625 3.94907 8.375 3.48889 8.375 2.94444C8.375 2.4 8.55625 1.93981 8.91875 1.56389C9.28125 1.18796 9.725 1 10.25 1C10.775 1 11.2188 1.18796 11.5813 1.56389C11.9438 1.93981 12.125 2.4 12.125 2.94444C12.125 3.48889 11.9438 3.94907 11.5813 4.325C11.2188 4.70093 10.775 4.88889 10.25 4.88889ZM13.625 8C13.1 8 12.6563 7.81204 12.2938 7.43611C11.9313 7.06018 11.75 6.6 11.75 6.05556C11.75 5.51111 11.9313 5.05093 12.2938 4.675C12.6563 4.29907 13.1 4.11111 13.625 4.11111C14.15 4.11111 14.5938 4.29907 14.9563 4.675C15.3188 5.05093 15.5 5.51111 15.5 6.05556C15.5 6.6 15.3188 7.06018 14.9563 7.43611C14.5938 7.81204 14.15 8 13.625 8Z" fill="white"/>
<path d="M7.95001 7L8.67501 7.56676C9.51668 8.22798 10.2125 8.79837 10.7625 9.27793C11.3125 9.75749 11.75 10.188 12.075 10.5695C12.4 10.951 12.6271 11.3015 12.7563 11.6213C12.8854 11.941 12.95 12.2679 12.95 12.6022C12.95 13.2852 12.6875 13.8556 12.1625 14.3134C11.6375 14.7711 10.9833 15 10.2 15C9.76668 15 9.35418 14.9201 8.96251 14.7602C8.57085 14.6004 8.23335 14.3751 7.95001 14.0845C7.66668 14.3751 7.32918 14.6004 6.93751 14.7602C6.54585 14.9201 6.13335 15 5.70001 15C4.91668 15 4.26251 14.7711 3.73751 14.3134C3.21251 13.8556 2.95001 13.2852 2.95001 12.6022C2.95001 12.2679 3.0146 11.941 3.14376 11.6213C3.27293 11.3015 3.50001 10.951 3.82501 10.5695C4.15001 10.188 4.58751 9.75749 5.13751 9.27793C5.68751 8.79837 6.38335 8.22798 7.22501 7.56676L7.95001 7Z" fill="white" stroke="white" stroke-width="0.5"/>
</svg>
