<svg width="98" height="16" viewBox="0 0 98 16" fill="none" xmlns="http://www.w3.org/2000/svg">
<path d="M2.375 7.9875C1.85337 7.9875 1.41288 7.8009 1.05275 7.42743C0.692598 7.05395 0.5125 6.59692 0.5125 6.05556C0.5125 5.51419 0.692598 5.05717 1.05275 4.68368C1.41288 4.31021 1.85337 4.12361 2.375 4.12361C2.89663 4.12361 3.33712 4.31021 3.69725 4.68368C4.0574 5.05717 4.2375 5.51419 4.2375 6.05556C4.2375 6.59692 4.0574 7.05395 3.69725 7.42743C3.33712 7.8009 2.89663 7.9875 2.375 7.9875ZM5.75 4.87639C5.22837 4.87639 4.78788 4.68979 4.42775 4.31632C4.0676 3.94283 3.8875 3.48581 3.8875 2.94444C3.8875 2.40308 4.0676 1.94605 4.42775 1.57257C4.78788 1.1991 5.22837 1.0125 5.75 1.0125C6.27163 1.0125 6.71212 1.1991 7.07225 1.57257C7.4324 1.94605 7.6125 2.40308 7.6125 2.94444C7.6125 3.48581 7.4324 3.94284 7.07225 4.31632C6.71212 4.68979 6.27163 4.87639 5.75 4.87639ZM10.25 4.87639C9.72837 4.87639 9.28788 4.68979 8.92775 4.31632C8.5676 3.94284 8.3875 3.48581 8.3875 2.94444C8.3875 2.40308 8.5676 1.94605 8.92775 1.57257C9.28788 1.1991 9.72837 1.0125 10.25 1.0125C10.7716 1.0125 11.2121 1.1991 11.5723 1.57257C11.9324 1.94605 12.1125 2.40308 12.1125 2.94444C12.1125 3.48581 11.9324 3.94284 11.5723 4.31632C11.2121 4.68979 10.7716 4.87639 10.25 4.87639ZM13.625 7.9875C13.1034 7.9875 12.6629 7.8009 12.3027 7.42743C11.9426 7.05395 11.7625 6.59692 11.7625 6.05556C11.7625 5.51419 11.9426 5.05717 12.3027 4.68368C12.6629 4.31021 13.1034 4.12361 13.625 4.12361C14.1466 4.12361 14.5871 4.31021 14.9473 4.68368C15.3074 5.05717 15.4875 5.51419 15.4875 6.05556C15.4875 6.59692 15.3074 7.05395 14.9473 7.42743C14.5871 7.8009 14.1466 7.9875 13.625 7.9875Z" fill="#1F2329" stroke="#1F2329" stroke-width="0.025"/>
<path d="M7.95001 7L8.67501 7.56676C9.51668 8.22798 10.2125 8.79837 10.7625 9.27793C11.3125 9.75749 11.75 10.188 12.075 10.5695C12.4 10.951 12.6271 11.3015 12.7563 11.6213C12.8854 11.941 12.95 12.2679 12.95 12.6022C12.95 13.2852 12.6875 13.8556 12.1625 14.3134C11.6375 14.7711 10.9833 15 10.2 15C9.76668 15 9.35418 14.9201 8.96251 14.7602C8.57085 14.6004 8.23335 14.3751 7.95001 14.0845C7.66668 14.3751 7.32918 14.6004 6.93751 14.7602C6.54585 14.9201 6.13335 15 5.70001 15C4.91668 15 4.26251 14.7711 3.73751 14.3134C3.21251 13.8556 2.95001 13.2852 2.95001 12.6022C2.95001 12.2679 3.0146 11.941 3.14376 11.6213C3.27293 11.3015 3.50001 10.951 3.82501 10.5695C4.15001 10.188 4.58751 9.75749 5.13751 9.27793C5.68751 8.79837 6.38335 8.22798 7.22501 7.56676L7.95001 7Z" fill="#1F2329" stroke="#1F2329" stroke-width="0.5"/>
<path d="M98.0001 13.8023H95.5738V12.8562H95.5139C95.0346 13.6329 94.2858 14 93.2973 14C91.193 14 89.7103 12.3479 89.7178 10.1592C89.7103 7.97051 91.193 6.3184 93.2973 6.3184C94.2858 6.3184 95.0346 6.68554 95.5139 7.46217H95.5738V3.57901H98.0001V13.8023ZM93.8814 11.9243C94.9073 11.9313 95.6337 11.1971 95.6337 10.1592C95.6337 9.12134 94.9073 8.38707 93.8814 8.39413C92.863 8.38707 92.1366 9.12134 92.1441 10.1592C92.1366 11.1971 92.863 11.9313 93.8814 11.9243Z" fill="#1F2329" fill-opacity="0.5"/>
<path d="M80.6717 13.8023V6.51609H83.098V7.60338H83.1429C83.5772 6.80557 84.4459 6.31841 85.5542 6.31841C87.3065 6.31841 88.3624 7.5469 88.3698 9.52378V13.8023H85.9586V9.91915C85.9436 8.95895 85.4344 8.38707 84.5957 8.39413C83.7495 8.38707 83.1054 8.94483 83.098 10.258V13.8023H80.6717Z" fill="#1F2329" fill-opacity="0.5"/>
<path d="M75.4597 14C72.9061 14 71.2137 12.3903 71.2212 10.1592C71.2137 7.89285 72.9511 6.31841 75.3399 6.31841C77.7062 6.31841 79.3312 7.89285 79.3387 10.1592C79.3312 10.3922 79.3163 10.6252 79.2788 10.8511H73.6475C73.7973 11.663 74.5236 12.1926 75.4597 12.1926C76.1861 12.1926 76.6878 11.896 76.9424 11.4018L79.0392 12.1078C78.4176 13.2657 77.1746 14 75.4597 14ZM73.6625 9.26961H76.8975C76.8001 8.62006 76.2085 8.12584 75.3399 8.12584C74.4937 8.12584 73.8572 8.57064 73.6625 9.26961Z" fill="#1F2329" fill-opacity="0.5"/>
<path d="M67.447 13.8023V6.51609H69.8732V13.8023H67.447ZM68.6601 5.59825C67.8588 5.59119 67.2523 5.04049 67.2523 4.29916C67.2523 3.55077 67.8588 2.99301 68.6601 3.00007C69.4614 2.99301 70.0679 3.55077 70.0679 4.29916C70.0679 5.04049 69.4614 5.59119 68.6601 5.59825Z" fill="#1F2329" fill-opacity="0.5"/>
<path d="M60.7224 13.8023V6.51609H63.1486V7.5469H63.2085C63.6204 6.78438 64.3468 6.31841 65.2304 6.31841C65.47 6.31841 65.6947 6.35371 65.9493 6.43137V8.5777C65.6273 8.49298 65.2903 8.45061 65.0058 8.45061C63.8001 8.45061 63.1561 9.19194 63.1486 10.5687V13.8023H60.7224Z" fill="#1F2329" fill-opacity="0.5"/>
<path d="M52.2903 13.8023V3.57901H59.2995V5.81006H54.8064V7.81519H58.8202V9.89091H54.8064V13.8023H52.2903Z" fill="#1F2329" fill-opacity="0.5"/>
<path d="M38.212 5.81006V3.57901H46.9885V5.81006H43.8583V13.8023H41.3422V5.81006H38.212Z" fill="#1F2329"/>
<path d="M29.5703 13.8023V3.57901H36.6544V5.81006H32.0864V7.60338H36.2351V9.6085H32.0864V11.5713H36.7742V13.8023H29.5703Z" fill="#1F2329"/>
<path d="M20 13.8023V3.57901H23.8491C26.3727 3.57901 28.11 4.99813 28.1025 7.05267C28.11 9.10722 26.3727 10.5263 23.8491 10.5263H22.5161V13.8023H20ZM22.5161 8.36589H23.894C24.9499 8.37295 25.5789 7.87167 25.5864 7.05267C25.5789 6.22662 24.9499 5.7324 23.894 5.73946H22.5161V8.36589Z" fill="#1F2329"/>
</svg>
