<svg width="24" height="24" viewBox="0 0 24 24" fill="none" xmlns="http://www.w3.org/2000/svg">
<path d="M5 21C4.45 21 3.97917 20.8042 3.5875 20.4125C3.19583 20.0209 3 19.55 3 19V5.00002C3 4.45002 3.19583 3.97919 3.5875 3.58752C3.97917 3.19585 4.45 3.00002 5 3.00002C5 3.00002 8.4 3.00003 9.2 3.00002C10 3.00001 10.5 3.00001 10.5 3.00001C10.5 3.00001 11.3667 3.00001 12 3.00001C12.6333 3.00001 13.5 3 13.5 3C13.5 3 14 3.00004 14.8 3.00002H19C19.55 3.00002 20.0208 3.19585 20.4125 3.58752C20.8042 3.97919 21 4.45002 21 5.00002V19C21 19.55 20.8042 20.0209 20.4125 20.4125C20.0208 20.8042 19.55 21 19 21H5ZM5 19H19V5.00002H5V19ZM7 17H14V15H7V17ZM7 13H17V11H7V13ZM7 9.00002H17V7.00002H7V9.00002Z" fill="#8D96A4"/>
</svg>
