<svg width="24" height="24" viewBox="0 0 24 24" fill="none" xmlns="http://www.w3.org/2000/svg">
<path d="M5.25 11.0776C4.62 11.0776 4.0875 10.8607 3.6525 10.4269C3.2175 9.99307 3 9.46205 3 8.83379C3 8.20554 3.2175 7.67451 3.6525 7.24072C4.0875 6.80692 4.62 6.59003 5.25 6.59003C5.88 6.59003 6.4125 6.80692 6.8475 7.24072C7.2825 7.67451 7.5 8.20554 7.5 8.83379C7.5 9.46205 7.2825 9.99307 6.8475 10.4269C6.4125 10.8607 5.88 11.0776 5.25 11.0776ZM9.3 7.48753C8.67 7.48753 8.1375 7.27064 7.7025 6.83684C7.2675 6.40305 7.05 5.87202 7.05 5.24377C7.05 4.61551 7.2675 4.08449 7.7025 3.65069C8.1375 3.2169 8.67 3 9.3 3C9.93 3 10.4625 3.2169 10.8975 3.65069C11.3325 4.08449 11.55 4.61551 11.55 5.24377C11.55 5.87202 11.3325 6.40305 10.8975 6.83684C10.4625 7.27064 9.93 7.48753 9.3 7.48753ZM14.7 7.48753C14.07 7.48753 13.5375 7.27064 13.1025 6.83684C12.6675 6.40305 12.45 5.87202 12.45 5.24377C12.45 4.61551 12.6675 4.08449 13.1025 3.65069C13.5375 3.2169 14.07 3 14.7 3C15.33 3 15.8625 3.2169 16.2975 3.65069C16.7325 4.08449 16.95 4.61551 16.95 5.24377C16.95 5.87202 16.7325 6.40305 16.2975 6.83684C15.8625 7.27064 15.33 7.48753 14.7 7.48753ZM18.75 11.0776C18.12 11.0776 17.5875 10.8607 17.1525 10.4269C16.7175 9.99307 16.5 9.46205 16.5 8.83379C16.5 8.20554 16.7175 7.67451 17.1525 7.24072C17.5875 6.80692 18.12 6.59003 18.75 6.59003C19.38 6.59003 19.9125 6.80692 20.3475 7.24072C20.7825 7.67451 21 8.20554 21 8.83379C21 9.46205 20.7825 9.99307 20.3475 10.4269C19.9125 10.8607 19.38 11.0776 18.75 11.0776Z" fill="#8D96A4"/>
<path d="M12 8.68421L13.0303 9.55672C14.2263 10.5746 15.2151 11.4527 15.9967 12.191C16.7783 12.9293 17.4 13.5921 17.8618 14.1793C18.3237 14.7666 18.6464 15.3063 18.8299 15.7985C19.0135 16.2907 19.1053 16.7941 19.1053 17.3086C19.1053 18.3601 18.7322 19.2382 17.9862 19.9429C17.2401 20.6476 16.3105 21 15.1974 21C14.5816 21 13.9954 20.877 13.4388 20.6309C12.8822 20.3848 12.4026 20.038 12 19.5906C11.5974 20.038 11.1178 20.3848 10.5612 20.6309C10.0046 20.877 9.41841 21 8.80262 21C7.68947 21 6.75986 20.6476 6.01381 19.9429C5.26776 19.2382 4.89473 18.3601 4.89473 17.3086C4.89473 16.7941 4.9865 16.2907 5.17006 15.7985C5.35361 15.3063 5.67631 14.7666 6.13815 14.1793C6.59999 13.5921 7.2217 12.9293 8.00328 12.191C8.78486 11.4527 9.77368 10.5746 10.9697 9.55672L12 8.68421Z" fill="#8D96A4" stroke="#8D96A4" stroke-width="0.5"/>
</svg>
