<svg width="20" height="20" viewBox="0 0 20 20" fill="none" xmlns="http://www.w3.org/2000/svg">
<rect width="20" height="20" rx="10" fill="white"/>
<path d="M9.4925 13.0395L10 13.5L10.5075 13.0395C11.0967 12.5023 11.5837 12.0388 11.9688 11.6492C12.3538 11.2595 12.66 10.9097 12.8875 10.5998C13.115 10.2899 13.274 10.005 13.3644 9.74523C13.4548 9.48547 13.5 9.2198 13.5 8.94823C13.5 8.39328 13.3162 7.92984 12.9488 7.5579C12.5813 7.18597 12.1233 7 11.575 7C11.2717 7 10.9829 7.06494 10.7088 7.19482C10.4346 7.3247 10.1983 7.50772 10 7.74387C9.80167 7.50772 9.56542 7.3247 9.29125 7.19482C9.01708 7.06494 8.72833 7 8.425 7C7.87667 7 7.41875 7.18597 7.05125 7.5579C6.68375 7.92984 6.5 8.39328 6.5 8.94823C6.5 9.2198 6.54521 9.48547 6.63563 9.74523C6.72604 10.005 6.885 10.2899 7.1125 10.5998C7.34 10.9097 7.64625 11.2595 8.03125 11.6492C8.41625 12.0388 8.90333 12.5023 9.4925 13.0395Z" fill="#8D96A4" fill-opacity="0.4"/>
</svg>
