<svg width="10" height="10" viewBox="0 0 10 10" fill="none" xmlns="http://www.w3.org/2000/svg">
<path d="M5 10L3.79625 8.2H1.4C1.1525 8.2 0.940625 8.11188 0.764375 7.93563C0.588125 7.75938 0.5 7.5475 0.5 7.3V1.9C0.5 1.6525 0.588125 1.44063 0.764375 1.26438C0.940625 1.08813 1.1525 1 1.4 1H8.6C8.8475 1 9.05937 1.08813 9.23563 1.26438C9.41187 1.44063 9.5 1.6525 9.5 1.9V7.3C9.5 7.5475 9.41187 7.75938 9.23563 7.93563C9.05937 8.11188 8.8475 8.2 8.6 8.2H6.20375L5 10Z" fill="#8D96A4" fill-opacity="0.4"/>
</svg>
