<svg width="14" height="14" viewBox="0 0 14 14" fill="none" xmlns="http://www.w3.org/2000/svg">
<path d="M6.99998 6.99996C7.32081 6.99996 7.59547 6.88572 7.82394 6.65725C8.05241 6.42878 8.16665 6.15413 8.16665 5.83329C8.16665 5.51246 8.05241 5.23781 7.82394 5.00933C7.59547 4.78086 7.32081 4.66663 6.99998 4.66663C6.67915 4.66663 6.40449 4.78086 6.17602 5.00933C5.94755 5.23781 5.83331 5.51246 5.83331 5.83329C5.83331 6.15413 5.94755 6.42878 6.17602 6.65725C6.40449 6.88572 6.67915 6.99996 6.99998 6.99996ZM6.99998 11.2875C8.18609 10.1986 9.06595 9.20933 9.63956 8.31975C10.2132 7.43017 10.5 6.64024 10.5 5.94996C10.5 4.89024 10.1621 4.02253 9.48644 3.34683C8.81074 2.67114 7.98192 2.33329 6.99998 2.33329C6.01803 2.33329 5.18922 2.67114 4.51352 3.34683C3.83783 4.02253 3.49998 4.89024 3.49998 5.94996C3.49998 6.64024 3.78679 7.43017 4.3604 8.31975C4.93401 9.20933 5.81387 10.1986 6.99998 11.2875ZM6.99998 12.8333C5.4347 11.5013 4.2656 10.2642 3.49269 9.12183C2.71977 7.97947 2.33331 6.92218 2.33331 5.94996C2.33331 4.49163 2.80241 3.32982 3.7406 2.46454C4.6788 1.59926 5.76526 1.16663 6.99998 1.16663C8.2347 1.16663 9.32116 1.59926 10.2594 2.46454C11.1975 3.32982 11.6666 4.49163 11.6666 5.94996C11.6666 6.92218 11.2802 7.97947 10.5073 9.12183C9.73435 10.2642 8.56526 11.5013 6.99998 12.8333Z" fill="#8D96A4"/>
</svg>
