<svg width="12" height="12" viewBox="0 0 12 12" fill="none" xmlns="http://www.w3.org/2000/svg">
<path d="M5.3475 9.58509L6 10.1771L6.6525 9.58509C7.41 8.89435 8.03625 8.2985 8.53125 7.79753C9.02625 7.29655 9.42 6.84682 9.7125 6.44832C10.005 6.04981 10.2094 5.68357 10.3256 5.34959C10.4419 5.01561 10.5 4.67404 10.5 4.32487C10.5 3.61137 10.2638 3.01551 9.79125 2.53731C9.31875 2.05911 8.73 1.82001 8.025 1.82001C7.635 1.82001 7.26375 1.9035 6.91125 2.07049C6.55875 2.23748 6.255 2.47279 6 2.77641C5.745 2.47279 5.44125 2.23748 5.08875 2.07049C4.73625 1.9035 4.365 1.82001 3.975 1.82001C3.27 1.82001 2.68125 2.05911 2.20875 2.53731C1.73625 3.01551 1.5 3.61137 1.5 4.32487C1.5 4.67404 1.55812 5.01561 1.67437 5.34959C1.79063 5.68357 1.995 6.04981 2.2875 6.44832C2.58 6.84682 2.97375 7.29655 3.46875 7.79753C3.96375 8.2985 4.59 8.89435 5.3475 9.58509Z" fill="#EE815E"/>
</svg>
