<svg width="20" height="20" viewBox="0 0 20 20" fill="none" xmlns="http://www.w3.org/2000/svg">
<path d="M4.16683 16.6667V15H5.50016L7.146 9.52083C7.25711 9.15972 7.46197 8.87153 7.76058 8.65625C8.05919 8.44097 8.38905 8.33333 8.75016 8.33333H11.2502C11.6113 8.33333 11.9411 8.44097 12.2397 8.65625C12.5384 8.87153 12.7432 9.15972 12.8543 9.52083L14.5002 15H15.8335V16.6667H4.16683ZM7.25016 15H12.7502L11.2502 10H8.75016L7.25016 15ZM9.16683 6.66667V2.5H10.8335V6.66667H9.16683ZM14.1252 8.72917L12.9377 7.54167L15.896 4.60417L17.0627 5.77083L14.1252 8.72917ZM15.0002 12.5V10.8333H19.1668V12.5H15.0002ZM5.87516 8.72917L2.93766 5.77083L4.10433 4.60417L7.06266 7.54167L5.87516 8.72917ZM0.833496 12.5V10.8333H5.00016V12.5H0.833496Z" fill="#1F2329"/>
</svg>
