<svg width="20" height="20" viewBox="0 0 20 20" fill="none" xmlns="http://www.w3.org/2000/svg">
<path d="M18.3332 18.6667L14.9998 15.3333H6.6665C6.20817 15.3333 5.81581 15.1701 5.48942 14.8437C5.16303 14.5174 4.99984 14.125 4.99984 13.6667V12.8333H14.1665C14.6248 12.8333 15.0172 12.6701 15.3436 12.3437C15.67 12.0174 15.8332 11.625 15.8332 11.1667V5.33333H16.6665C17.1248 5.33333 17.5172 5.49653 17.8436 5.82292C18.17 6.14931 18.3332 6.54167 18.3332 7V18.6667ZM3.33317 10.4792L4.31234 9.5H12.4998V3.66667H3.33317V10.4792ZM1.6665 14.5V3.66667C1.6665 3.20833 1.8297 2.81597 2.15609 2.48958C2.48248 2.16319 2.87484 2 3.33317 2H12.4998C12.9582 2 13.3505 2.16319 13.6769 2.48958C14.0033 2.81597 14.1665 3.20833 14.1665 3.66667V9.5C14.1665 9.95833 14.0033 10.3507 13.6769 10.6771C13.3505 11.0035 12.9582 11.1667 12.4998 11.1667H4.99984L1.6665 14.5Z" fill="#1F2329"/>
</svg>
