<svg width="20" height="20" viewBox="0 0 20 20" fill="none" xmlns="http://www.w3.org/2000/svg">
<path d="M4.16667 17C3.70833 17 3.31597 16.8368 2.98958 16.5104C2.66319 16.184 2.5 15.7917 2.5 15.3334V3.66668C2.5 3.20835 2.66319 2.81599 2.98958 2.4896C3.31597 2.16321 3.70833 2.00002 4.16667 2.00002C4.16667 2.00002 7 2.00002 7.66667 2.00002C8.33333 2.00001 8.75 2.00001 8.75 2.00001C8.75 2.00001 9.47222 2.00001 10 2.00001C10.5278 2.00001 11.25 2 11.25 2C11.25 2 11.6667 2.00003 12.3333 2.00002H15.8333C16.2917 2.00002 16.684 2.16321 17.0104 2.4896C17.3368 2.81599 17.5 3.20835 17.5 3.66668V15.3334C17.5 15.7917 17.3368 16.184 17.0104 16.5104C16.684 16.8368 16.2917 17 15.8333 17H4.16667ZM4.16667 15.3334H15.8333V3.66668H4.16667V15.3334ZM5.83333 13.6667H11.6667V12H5.83333V13.6667ZM5.83333 10.3334H14.1667V8.66669H5.83333V10.3334ZM5.83333 7.00002H14.1667V5.33335H5.83333V7.00002Z" fill="#1F2329"/>
</svg>
