<svg width="18" height="18" viewBox="0 0 18 18" fill="none" xmlns="http://www.w3.org/2000/svg">
<path d="M2.25 8.07756C1.62 8.07756 1.0875 7.86066 0.6525 7.42687C0.2175 6.99307 0 6.46205 0 5.83379C0 5.20554 0.2175 4.67451 0.6525 4.24072C1.0875 3.80693 1.62 3.59003 2.25 3.59003C2.88 3.59003 3.4125 3.80693 3.8475 4.24072C4.2825 4.67451 4.5 5.20554 4.5 5.83379C4.5 6.46205 4.2825 6.99307 3.8475 7.42687C3.4125 7.86066 2.88 8.07756 2.25 8.07756ZM6.3 4.48753C5.67 4.48753 5.1375 4.27064 4.7025 3.83684C4.2675 3.40305 4.05 2.87202 4.05 2.24377C4.05 1.61551 4.2675 1.08449 4.7025 0.650692C5.1375 0.216897 5.67 0 6.3 0C6.93 0 7.4625 0.216897 7.8975 0.650692C8.3325 1.08449 8.55 1.61551 8.55 2.24377C8.55 2.87202 8.3325 3.40305 7.8975 3.83684C7.4625 4.27064 6.93 4.48753 6.3 4.48753ZM11.7 4.48753C11.07 4.48753 10.5375 4.27064 10.1025 3.83684C9.6675 3.40305 9.45 2.87202 9.45 2.24377C9.45 1.61551 9.6675 1.08449 10.1025 0.650692C10.5375 0.216897 11.07 0 11.7 0C12.33 0 12.8625 0.216897 13.2975 0.650692C13.7325 1.08449 13.95 1.61551 13.95 2.24377C13.95 2.87202 13.7325 3.40305 13.2975 3.83684C12.8625 4.27064 12.33 4.48753 11.7 4.48753ZM15.75 8.07756C15.12 8.07756 14.5875 7.86066 14.1525 7.42687C13.7175 6.99307 13.5 6.46205 13.5 5.83379C13.5 5.20554 13.7175 4.67451 14.1525 4.24072C14.5875 3.80693 15.12 3.59003 15.75 3.59003C16.38 3.59003 16.9125 3.80693 17.3475 4.24072C17.7825 4.67451 18 5.20554 18 5.83379C18 6.46205 17.7825 6.99307 17.3475 7.42687C16.9125 7.86066 16.38 8.07756 15.75 8.07756Z" fill="#1F2329"/>
<path d="M9.00015 6.51316L9.77285 7.16754C10.6699 7.93098 11.4115 8.58956 11.9977 9.14327C12.5839 9.69697 13.0502 10.1941 13.3965 10.6345C13.7429 11.0749 13.9849 11.4797 14.1226 11.8489C14.2603 12.218 14.3291 12.5955 14.3291 12.9815C14.3291 13.7701 14.0493 14.4287 13.4898 14.9572C12.9303 15.4857 12.233 15.75 11.3982 15.75C10.9363 15.75 10.4967 15.6577 10.0793 15.4731C9.66183 15.2886 9.30213 15.0285 9.00015 14.6929C8.69818 15.0285 8.33847 15.2886 7.92104 15.4731C7.50361 15.6577 7.06397 15.75 6.60213 15.75C5.76726 15.75 5.07005 15.4857 4.51051 14.9572C3.95097 14.4287 3.6712 13.7701 3.6712 12.9815C3.6712 12.5955 3.74003 12.218 3.8777 11.8489C4.01536 11.4797 4.25739 11.075 4.60377 10.6345C4.95015 10.1941 5.41643 9.69697 6.00262 9.14327C6.5888 8.58956 7.33041 7.93098 8.22745 7.16754L9.00015 6.51316Z" fill="#1F2329" stroke="#1F2329" stroke-width="0.5"/>
</svg>
